<?xml version="1.0" standalone="no"?>
<!DOCTYPE svg PUBLIC "-//W3C//DTD SVG 1.1//EN" "http://www.w3.org/Graphics/SVG/1.1/DTD/svg11.dtd" >
<!--
2013-9-30: Created.
-->
<svg>
<metadata>
Created by iconfont
</metadata>
<defs>

<font id="iconfont" horiz-adv-x="1024" >
  <font-face
    font-family="iconfont"
    font-weight="500"
    font-stretch="normal"
    units-per-em="1024"
    ascent="896"
    descent="-128"
  />
    <missing-glyph />
    
    <glyph glyph-name="x" unicode="x" horiz-adv-x="1001"
d="M281 543q-27 -1 -53 -1h-83q-18 0 -36.5 -6t-32.5 -18.5t-23 -32t-9 -45.5v-76h912v41q0 16 -0.5 30t-0.5 18q0 13 -5 29t-17 29.5t-31.5 22.5t-49.5 9h-133v-97h-438v97zM955 310v-52q0 -23 0.5 -52t0.5 -58t-10.5 -47.5t-26 -30t-33 -16t-31.5 -4.5q-14 -1 -29.5 -0.5
t-29.5 0.5h-32l-45 128h-439l-44 -128h-29h-34q-20 0 -45 1q-25 0 -41 9.5t-25.5 23t-13.5 29.5t-4 30v167h911zM163 247q-12 0 -21 -8.5t-9 -21.5t9 -21.5t21 -8.5q13 0 22 8.5t9 21.5t-9 21.5t-22 8.5zM316 123q-8 -26 -14 -48q-5 -19 -10.5 -37t-7.5 -25t-3 -15t1 -14.5
t9.5 -10.5t21.5 -4h37h67h81h80h64h36q23 0 34 12t2 38q-5 13 -9.5 30.5t-9.5 34.5q-5 19 -11 39h-368zM336 498v228q0 11 2.5 23t10 21.5t20.5 15.5t34 6h188q31 0 51.5 -14.5t20.5 -52.5v-227h-327z" />
    

    
    <glyph glyph-name="guanyuwomen" unicode="&#59012;" d="M512 896C230.4 896 0 665.6 0 384s230.4-512 512-512 512 230.4 512 512S793.6 896 512 896zM512-64c-249.6 0-448 198.4-448 448 0 249.6 198.4 448 448 448s448-198.4 448-448C960 134.4 761.6-64 512-64zM512 736C390.4 736 288 633.6 288 512S390.4 288 512 288s224 102.4 224 224S633.6 736 512 736zM512 352C422.4 352 352 422.4 352 512c0 89.6 70.4 160 160 160s160-70.4 160-160C672 422.4 601.6 352 512 352zM204.8 44.8C236.8 185.6 364.8 288 512 288s275.2-102.4 307.2-243.2l64 0c-38.4 172.8-192 307.2-377.6 307.2s-339.2-128-377.6-307.2L204.8 44.8z"  horiz-adv-x="1024" />

    
    <glyph glyph-name="to-top" unicode="&#58881;" d="M528.681054 565.7796969999999C528.681054 575.335671 520.887116 583.082312 511.122137 583.082312L511.122137 583.082312C501.424687 583.082312 493.56322 575.07746 493.56322 565.7796969999999L493.56322 359.79519100000005C493.56322 350.23921700000005 501.356882 342.49254800000006 511.122137 342.49254800000006L511.122137 342.49254800000006C520.819588 342.49254800000006 528.681054 350.49739999999997 528.681054 359.79519100000005L528.681054 565.7796969999999ZM472.590546 871.8765980000001L184.625248 295.946058C166.855722 260.40725399999997 202.33721 220.34753899999998 239.995367 234.83141799999999L508.660413 338.434203C509.746948 338.77663099999995 513.422514 338.77663099999995 517.398635 337.78258700000004L521.657321 354.81716600000004 515.339864 338.434203 783.990242 234.836953C821.66279 220.34753899999998 857.144278 260.40725399999997 839.374752 295.946058L551.409731 871.8765980000001C533.825076 904.13825 487.241612 904.13825 472.310471 871.289935L472.590546 871.8765980000001ZM504.280508 856.758123C506.908285 862.539315 516.5133 862.539315 520.289604 855.615933L807.964587 280.240948C811.519212 273.13164300000005 804.082286 264.73493499999995 796.611319 267.608386L527.975055 371.20012899999995 525.916008 371.851773C515.845216 374.369457 505.473594 374.369457 496.790169 371.474973L227.374566 267.602851C219.917991 264.73493499999995 212.480788 273.13164300000005 216.035413 280.240948L504.00071 856.171488 504.280508 856.758123ZM512 10.37686599999995C527.284555 10.37686599999995 539.675373 22.76754600000004 539.675373 38.052238999999986 539.675373 53.33693200000005 527.284555 65.72761200000002 512 65.72761200000002 496.715445 65.72761200000002 484.324627 53.33693200000005 484.324627 38.052238999999986 484.324627 22.76754600000004 496.715445 10.37686599999995 512 10.37686599999995ZM512-127.99999700000001C527.284555-127.99999700000001 539.675373-115.60931800000003 539.675373-100.32462499999997 539.675373-85.03993100000002 527.284555-72.64925200000005 512-72.64925200000005 496.715445-72.64925200000005 484.324627-85.03993100000002 484.324627-100.32462499999997 484.324627-115.60931800000003 496.715445-127.99999700000001 512-127.99999700000001ZM512 148.75373000000002C527.284555 148.75373000000002 539.675373 161.14441 539.675373 176.42910300000005 539.675373 191.713796 527.284555 204.10447499999998 512 204.10447499999998 496.715445 204.10447499999998 484.324627 191.713796 484.324627 176.42910300000005 484.324627 161.14441 496.715445 148.75373000000002 512 148.75373000000002Z"  horiz-adv-x="1024" />

    
    <glyph glyph-name="ewm1" unicode="&#58940;" d="M360.761392 813.391691c0 9.572465-7.832761 17.405227-17.405227 17.405227L84.974306 830.796918c-9.572465 0-17.405227-7.832761-17.405227-17.405227l0-258.381859c0-9.572465 7.832761-17.405227 17.405227-17.405227l258.381859 0c9.572465 0 17.405227 7.832761 17.405227 17.405227L360.761392 813.391691zM329.892903 585.878321c0-9.572465-7.832761-17.405227-17.405227-17.405227L115.842795 568.473094c-9.572465 0-17.405227 7.832761-17.405227 17.405227L98.437568 782.523202c0 9.572465 7.832761 17.405227 17.405227 17.405227l196.644882 0c9.572465 0 17.405227-7.832761 17.405227-17.405227L329.892903 585.878321zM954.442541 813.391691c0 9.572465-7.832761 17.405227-17.405227 17.405227L678.654432 830.796918c-9.572465 0-17.405227-7.832761-17.405227-17.405227l0-258.381859c0-9.572465 7.832761-17.405227 17.405227-17.405227l258.381859 0c9.572465 0 17.405227 7.832761 17.405227 17.405227L954.441518 813.391691zM923.573029 585.878321c0-9.572465-7.832761-17.405227-17.405227-17.405227L709.523944 568.473094c-9.572465 0-17.405227 7.832761-17.405227 17.405227L692.118717 782.523202c0 9.572465 7.832761 17.405227 17.405227 17.405227l196.644882 0c9.572465 0 17.405227-7.832761 17.405227-17.405227L923.574052 585.878321zM67.569079-48.185450999999944c0-9.572465 7.832761-17.405227 17.405227-17.405227l258.381859 0c9.572465 0 17.405227 7.832761 17.405227 17.405227L360.761392 210.195385c0 9.572465-7.832761 17.405227-17.405227 17.405227L84.974306 227.60061199999996c-9.572465 0-17.405227-7.832761-17.405227-17.405227L67.569079-48.185450999999944zM98.438592 179.32791899999995c0 9.572465 7.832761 17.405227 17.405227 17.405227l196.644882 0c9.572465 0 17.405227-7.832761 17.405227-17.405227l0-196.645905c0-9.572465-7.832761-17.405227-17.405227-17.405227L115.842795-34.72321199999999c-9.572465 0-17.405227 7.832761-17.405227 17.405227L98.437568 179.32791899999995zM72.769771 387.046529c0 8.488732 7.832761 15.434244 17.405227 15.434244l848.806692 0c9.572465 0 17.405227-6.945512 17.405227-15.434244 0-8.488732-7.832761-15.434244-17.405227-15.434244L90.173974 371.61228400000005C80.601509 371.61228400000005 72.769771 378.55779700000005 72.769771 387.046529zM495.572078 813.367131c0 9.572465 6.945512 17.405227 15.434244 17.405227 8.488732 0 15.434244-7.832761 15.434244-17.405227l0-258.336832c0-9.572465-6.945512-17.405227-15.434244-17.405227-8.488732 0-15.434244 7.832761-15.434244 17.405227L495.572078 813.367131zM492.595137 149.36509999999998c0 8.488732 7.832761 15.434244 17.405227 15.434244l425.405722 0c9.572465 0 17.405227-6.945512 17.405227-15.434244 0-8.488732-7.832761-15.434244-17.405227-15.434244L510.000364 133.93085599999995C500.427898 133.93085599999995 492.595137 140.87636799999996 492.595137 149.36509999999998zM501.802265-48.526227999999946c0 8.488732 7.832761 15.434244 17.405227 15.434244l406.993514 0c9.572465 0 17.405227-6.945512 17.405227-15.434244 0-8.488732-7.832761-15.433221-17.405227-15.433221L519.207491-63.95944999999995C509.635026-63.96047299999998 501.802265-57.01496099999997 501.802265-48.526227999999946zM501.802265-33.09300699999994"  horiz-adv-x="1024" />

    
    <glyph glyph-name="has-read" unicode="&#58893;" d="M511.465834 626.431471c169.452343 0 315.308269-99.390661 383.564839-242.839771l66.51388 0c-72.088852 177.909969-246.292406 303.525921-450.078719 303.525921-203.75459 0-377.958144-125.616976-450.046996-303.525921l66.514903 0C196.189288 527.04081 342.045213 626.431471 511.465834 626.431471zM511.465834 140.75193000000002c-169.420621 0-315.276547 99.390661-383.532093 242.839771l-66.514903 0c72.087828-177.940668 246.291382-303.557644 450.046996-303.557644 203.786313 0 377.989867 125.616976 450.078719 303.557644l-66.51388 0C826.774103 240.14259100000004 680.919201 140.75193000000002 511.465834 140.75193000000002zM349.594143 383.57635100000005c0-89.412402 72.473615-161.886017 161.884994-161.886017 89.413426 0 161.886017 72.473615 161.886017 161.886017 0 89.413426-72.472592 161.886017-161.886017 161.886017C422.066735 545.4623690000001 349.594143 472.989777 349.594143 383.57635100000005zM612.67798 383.57635100000005c0-55.879682-45.320185-101.19782-101.198843-101.19782s-101.166097 45.318138-101.166097 101.19782c0 55.879682 45.287439 101.198843 101.166097 101.198843S612.67798 439.456033 612.67798 383.57635100000005z"  horiz-adv-x="1024" />

    
    <glyph glyph-name="wchat2" unicode="&#58909;" d="M498.816 550.944c26.336 0 43.936 17.632 43.936 43.904 0 26.56-17.568 43.744-43.936 43.744s-52.832-17.184-52.832-43.744C446.016 568.576 472.48 550.944 498.816 550.944zM253.088 638.592c-26.336 0-52.96-17.184-52.96-43.744 0-26.272 26.624-43.904 52.96-43.904 26.24 0 43.808 17.632 43.808 43.904C296.864 621.408 279.328 638.592 253.088 638.592zM1024 269.88800000000003c0 138.88-128.832 257.216-286.976 269.536 0.224 1.728 0.32 3.52-0.064 5.312-31.712 147.84-190.688 259.296-369.824 259.296C164.704 804.032 0 662.88 0 489.376c0-93.088 47.52-176.96 137.568-243.104l-31.392-94.368c-2.016-6.144-0.192-12.896 4.704-17.152 2.976-2.56 6.72-3.904 10.496-3.904 2.432 0 4.896 0.576 7.168 1.696L246.4 191.51999999999998l14.528-2.944c36.288-7.456 67.616-13.92 106.208-13.92 11.36 0 22.88 0.512 34.176 1.472 4.576 0.384 8.448 2.688 11.072 6.016 42.496-106.336 159.616-183.104 297.44-183.104 35.296 0 71.04 8.512 103.104 16.544l90.848-49.664c2.4-1.312 5.056-1.984 7.68-1.984 3.584 0 7.168 1.216 10.048 3.552 5.056 4.096 7.136 10.848 5.248 17.024l-23.2 77.152C981.344 123.13599999999997 1024 196.67200000000003 1024 269.88800000000003zM398.592 208.03200000000004c-10.4-0.896-20.96-1.344-31.424-1.344-35.328 0-65.216 6.112-99.776 13.248L247.296 224c-3.456 0.736-7.104 0.256-10.272-1.376l-88.288-44.192 22.944 68.928c2.24 6.752-0.224 14.112-6.016 18.176C76.96 327.36 32 402.688 32 489.376c0 155.84 150.336 282.656 335.136 282.656 163.36 0 308-99.392 337.856-231.584-171.296-2.24-309.888-122.656-309.888-270.56 0-21.504 3.264-42.336 8.768-62.432C402.208 207.87199999999996 400.448 208.192 398.592 208.03200000000004zM875.456 80.44799999999998c-5.344-4.032-7.616-10.976-5.696-17.376l15.136-50.336-62.112 33.984c-2.368 1.312-5.024 1.984-7.68 1.984-1.312 0-2.624-0.16-3.904-0.512-33.312-8.416-67.776-17.088-101.344-17.088-155.904 0-282.72 107.136-282.72 238.816 0 131.68 126.816 238.784 282.72 238.784 152.928 0 282.144-109.344 282.144-238.784C992 204.25599999999997 950.624 136.96000000000004 875.456 80.44799999999998zM612.992 384.032c-17.568 0-35.136-17.696-35.136-35.232 0-17.664 17.568-35.104 35.136-35.104 26.4 0 43.84 17.44 43.84 35.104C656.832 366.36800000000005 639.392 384.032 612.992 384.032zM806.016 384.032c-17.312 0-34.88-17.696-34.88-35.232 0-17.664 17.568-35.104 34.88-35.104 26.304 0 44.064 17.44 44.064 35.104C850.08 366.36800000000005 832.352 384.032 806.016 384.032z"  horiz-adv-x="1024" />

    
    <glyph glyph-name="msg2" unicode="&#58910;" d="M516.458667 5.973333000000025c-12.032 0-23.381333 4.714667-31.893333 13.248l-98.432 98.410667L147.712 117.63199999999995C120.341333 117.65333299999998 98.048 140.13866700000005 98.048 167.808L98.048 676.970667C98.048 704.64 120.341333 727.168 147.712 727.168l728.448 0c27.370667 0 49.664-22.528 49.664-50.197333L925.824 167.808c0-27.669333-22.293333-50.176-49.664-50.176L646.805333 117.63199999999995l-98.432-98.410667C539.882667 10.687999999999988 528.554667 5.973333000000025 516.458667 5.973333000000025L516.458667 5.973333000000025zM162.048 181.65333299999998l250.581333 0 103.829333-103.829333 103.829333 103.829333 241.536 0L861.824 663.168 162.048 663.168 162.048 181.65333299999998 162.048 181.65333299999998zM300.053333 422.741333m-45.397333 0a2.128 2.128 0 1 1 90.794667 0 2.128 2.128 0 1 1-90.794667 0ZM748.032 422.741333m-45.397333 0a2.128 2.128 0 1 1 90.794667 0 2.128 2.128 0 1 1-90.794667 0ZM521.024 422.741333m-45.397333 0a2.128 2.128 0 1 1 90.794667 0 2.128 2.128 0 1 1-90.794667 0Z"  horiz-adv-x="1024" />

    
    <glyph glyph-name="circle" unicode="&#58987;" d="M512-128C229.234759-128 0 101.23475900000005 0 384 0 666.7652410000001 229.234759 896 512 896 794.765241 896 1024 666.7652410000001 1024 384 1024 101.23475900000005 794.765241-128 512-128ZM512-75.03448300000002C560.16331-75.03448300000002 606.561103-67.54868999999997 650.169379-53.79530999999997L380.910345 215.46372399999996C379.568552 216.805517 378.88 218.50041399999998 377.873655 220.03641400000004 330.434207 258.895448 300.137931 317.89903400000003 300.137931 384 300.137931 388.57269 300.544 393.039448 300.826483 397.541517L95.408552 192.12358600000005C168.112552 34.55117199999995 327.079724-75.03448300000002 512-75.03448300000002ZM512 542.8965519999999C424.236138 542.8965519999999 353.103448 471.746207 353.103448 384 353.103448 296.236138 424.236138 225.10344799999996 512 225.10344799999996 599.763862 225.10344799999996 670.896552 296.236138 670.896552 384 670.896552 471.746207 599.763862 542.8965519999999 512 542.8965519999999ZM52.965517 384C52.965517 335.83669 60.45131 289.456552 74.20469 245.83062099999995L343.463724 515.089655C344.805517 516.431448 346.500414 517.12 348.036414 518.10869 386.877793 565.565793 445.881379 595.862069 512 595.862069 516.57269 595.862069 521.039448 595.473655 525.541517 595.173517L320.123586 800.591448C162.551172 727.887448 52.965517 568.9202760000001 52.965517 384ZM512 843.034483C463.83669 843.034483 417.456552 835.54869 373.830621 821.79531L643.089655 552.536276C644.431448 551.194483 645.12 549.499586 646.10869 547.981241 693.565793 509.122207 723.862069 450.118621 723.862069 384 723.862069 379.42731000000003 723.456 374.960552 723.173517 370.458483L928.591448 575.8764140000001C855.887448 733.448828 696.920276 843.034483 512 843.034483ZM680.536276 252.910345C679.194483 251.56855199999995 677.499586 250.88 675.963586 249.87365499999999 637.104552 202.43420700000001 578.100966 172.13793099999998 512 172.13793099999998 507.42731 172.13793099999998 502.960552 172.54399999999998 498.458483 172.82648300000005L703.894069-32.591448000000014C861.448828 40.11255200000005 971.034483 199.07972400000006 971.034483 384 971.034483 432.16331 963.54869 478.543448 949.79531 522.1693789999999L680.536276 252.910345Z"  horiz-adv-x="1024" />

    
    <glyph glyph-name="dianping" unicode="&#58964;" d="M363.527777 753.777778 154.420793 753.777778C107.296215 753.777778 68.920889 713.896152 68.920889 664.692035L68.920889 107.829481C68.920889 58.573116 107.004407 18.74374 154.063287 18.74374L408.873754 18.74374 385.992474 30.809919C428.560242-29.424432 473.280068-68.697805 522.343054-68.697805 571.40604-68.697805 616.125867-29.424432 658.693632 30.809919L635.812352 18.74374 865.55627 18.74374C912.439487 18.74374 950.698667 58.699438 950.698667 107.829481L950.698667 418.937927C950.698667 435.354101 937.963654 448.662039 922.254222 448.662039 906.544791 448.662039 893.809778 435.354101 893.809778 418.937927L893.809778 107.829481C893.809778 91.540014 881.028489 78.191966 865.55627 78.191966L635.812352 78.191966 621.45827 78.191966 612.931072 66.125787C580.685998 20.498281 546.812689-9.249579 522.343054-9.249579 497.873417-9.249579 464.000111 20.498281 431.755036 66.125787L423.227836 78.191966 408.873754 78.191966 154.063287 78.191966C138.433687 78.191966 125.809778 91.394594 125.809778 107.829481L125.809778 664.692035C125.809778 680.990323 138.645192 694.32955 154.420793 694.32955L363.527777 694.32955C379.237211 694.32955 391.972221 707.637489 391.972221 724.053664 391.972221 740.469839 379.237211 753.777778 363.527777 753.777778L363.527777 753.777778ZM321.345563 374.805242 286.49223 248.405242C282.316376 233.260985 291.208025 217.598939 306.352282 213.423087 321.49654 209.247232 337.158584 218.138883 341.334437 233.28314L376.18777 359.68314C380.363622 374.827398 371.471974 390.489441 356.327717 394.665293 341.18346 398.841148 325.521416 389.9495 321.345563 374.805242L321.345563 374.805242ZM323.204953 212.832873 471.391619 238.992873C486.861841 241.723895 497.189006 256.478919 494.457984 271.949144 491.726962 287.419366 476.971938 297.746529 461.501713 295.015506L313.315047 268.855506C297.844824 266.124484 287.517661 251.369461 290.248683 235.899238 292.979705 220.429013 307.73473 210.101851 323.204953 212.832873L323.204953 212.832873ZM373.228066 351.452436 810.481399 787.612436C816.414305 793.545308 825.989757 793.545308 831.922497 787.621853L878.146739 741.397597C884.051829 735.49251 884.051829 725.902537 878.146739 719.99745L450.681065 291.43841C439.587018 280.315984 439.610021 262.305971 450.732447 251.211924 461.854874 240.117874 479.864886 240.14088 490.958933 251.263303L918.398933 679.796638C946.494839 707.89251 946.494839 753.502537 918.373259 781.624116L872.133259 827.864116C843.970241 855.983072 798.39903 855.983072 770.280073 827.864116L333.051934 391.729277C321.929791 380.634945 321.907246 362.624933 333.001579 351.502791 344.095912 340.380646 362.105924 340.358104 373.228066 351.452436L373.228066 351.452436Z"  horiz-adv-x="1024" />

    
    <glyph glyph-name="nice" unicode="&#58923;" d="M558.272883 877.320569c92.586698-23.255657 126.318964-88.413656 122.815163-177.186492-2.173502-55.07434-9.112542-109.949134-14.296611-169.33978 66.839291 0 135.935995 0.283456 205.027583-0.060375 119.615285-0.613984 171.847903-67.187215 145.432277-184.42536-25.228591-111.99677-50.123584-224.070288-75.253938-336.097758-19.585057-87.317695-58.288544-119.205962-148.787698-119.350249-241.831814-0.378623-483.658512-0.099261-725.490326 0.25378-59.984163 0.078795-67.027579 7.29822-67.116607 67.76129-0.229221 153.881716 1.075495 307.787992-0.593518 461.664591-0.517793 47.836495 18.09103 68.146053 65.562205 67.352991 47.272653-0.783853 94.998631-1.636267 141.812843 3.718695 115.337865 13.190417 213.32762 110.855784 217.859843 225.675856 3.239787 82.161255 37.302581 133.307122 112.730481 160.03281C544.737612 877.320569 551.507806 877.320569 558.272883 877.320569L558.272883 877.320569zM254.42155-26.952605999999946c189.818183 0 372.0946 0.12996 554.371016-0.109494 38.749536-0.050142 46.100968 28.359908 52.577472 56.888661 25.013697 110.193705 49.660027 220.466204 74.006528 330.804195 15.947204 72.247464 4.276397 86.34453-71.728648 86.84902-79.396281 0.528026-158.802796-0.065492-238.19396 0.687662-68.353784 0.64366-82.744539 21.60404-54.833863 84.299965 30.667463 68.877717 36.564777 140.02922 24.730241 213.018581-6.247284 38.569434-41.6107 57.112766-64.231907 33.899064-12.402471-12.737092-17.972327-35.653011-19.776416-54.631248-14.017248-147.506519-90.90029-246.308779-226.946802-302.220183-12.416797-5.104251-28.523637-21.629623-28.688389-33.070186C253.713422 253.01578300000006 254.42155 116.52617899999996 254.42155-26.952605999999946L254.42155-26.952605999999946zM169.56286-25.017533999999955L169.56286 399.902178 86.288249 399.902178l0-424.919712L169.56286-25.017533999999955 169.56286-25.017533999999955zM169.56286-25.017533999999955"  horiz-adv-x="1040" />

    
    <glyph glyph-name="24h" unicode="&#58899;" d="M686.138062 398.863523l0 147.008168c0 13.145391 2.204202 23.799032 15.349593 23.799032s15.349593-10.653641 15.349593-23.799032l0-73.92057 161.76629 67.505463c11.973706 5.298679 30.608112-0.11154 35.926234-12.145621 5.317099-12.019755 1.51654-26.071795-10.504238-31.388894L686.138062 398.863523zM719.727065 739.258143c-97.644901 0-184.479595-46.229904-239.85274-117.983111l55.293327 0c47.307446 47.239907 112.581078 76.493162 184.558389 76.493162 144.091746 0 261.318634-117.226888 261.318634-261.318634 0-140.170436-110.937648-254.901481-249.620198-261.043365l-8.165983-41.720194c165.605735 1.896186 299.275107 136.708592 299.275107 302.763558C1022.534626 603.686445 886.962927 739.258143 719.727065 739.258143zM253.69091 232.996844l0 36.279275 0 36.279275 133.12395 268.046872 38.977733 0 38.977733 0 0-272.544303 40.177048 0 0-68.061119-40.177048 0 0-96.245018-70.459748 0L394.310577 232.996844 253.69091 232.996844zM394.310577 301.057963L394.310577 479.496981l-85.22401-173.948751-2.390443-4.489244L394.310577 301.058986zM244.327658 436.580542c0-30.785144-6.701632-57.072857-20.088524-78.854952-13.395078-21.790282-38.58069-47.478338-75.556836-77.05598-31.984459-25.590841-54.674227-48.272423-68.061119-68.061119L244.327658 212.60849099999996l0-75.856665L-0.032746 136.75182600000005l0 0.072655c0 39.561018 8.144494 72.980151 24.432459 100.256378 16.296151 27.26804 46.821375 58.888202 91.601254 94.859461 22.381753 17.989723 37.632085 33.775244 45.719274 47.372937 8.103562 13.589506 12.146645 30.1773 12.146645 49.771567 0 20.388353-4.700045 37.332257-14.09195 50.816363-9.400091 13.500479-21.190625 20.24202-35.379789 20.24202-19.189038 0-32.93204-6.296403-41.23003-18.889209-8.289804-12.592806-12.243859-33.183773-11.839653-61.764716l-68.960605 0c-0.802272 46.967708 9.691733 84.202751 31.482015 111.689778 21.782096 27.478841 51.570539 41.222867 89.348957 41.222867 35.574217 0 64.657602-12.698207 87.250156-38.078247C233.031381 508.936477 244.327658 476.352361 244.327658 436.580542zM540.958542 395.706623l20.85805 0 21.036106 0 0-93.4166 3.209088 4.991688c10.810207 16.993023 25.315572 25.493627 43.499723 25.493627 16.871249 0 30.330796-5.737678 40.379663-17.203824 10.04068-11.474332 15.064091-26.830065 15.064091-46.084595l0-135.846968-20.85805 0-21.036106 0L643.111107 254.333802c0 11.644201-2.293229 20.526499-6.863315 26.65201-4.578272 6.118348-11.141758 9.181103-19.699668 9.181103-10.940167 0-19.286252-4.367471-25.047466-13.103436-5.7694-8.735965-8.646937-21.36868-8.646937-37.883819l0-105.539708-20.85805 0-21.036106 0L540.959565 395.706623z"  horiz-adv-x="1039" />

    
    <glyph glyph-name="add" unicode="&#58963;" d="M829.410652 418.911114L549.308209 418.911114 549.308209 699.013557 472.916355 699.013557 472.916355 418.911114 192.813912 418.911114 192.813912 342.51926000000003 472.916355 342.51926000000003 472.916355 62.41681700000004 549.308209 62.41681700000004 549.308209 342.51926000000003 829.410652 342.51926000000003Z"  horiz-adv-x="1024" />

    
    <glyph glyph-name="qq" unicode="&#59134;" d="M908.509625 415.684282c2.520044 40.223428 1.102839 68.474342-1.102839 75.721134-10.291119 35.445482-31.821574 27.568936-31.821574 35.445482 0 203.899327-160.893713 369.152174-359.332091 369.152174s-359.279868-165.251823-359.279868-369.152174c0-16.226177-15.071114-4.252639-27.463464-35.445482-5.514197-13.96725 2.572268-22.737742 0-75.721134-0.683003-14.230416-65.218048-78.819733-90.791223-145.823623-25.362233-66.478582-28.880669-135.951317 10.345391-163.203839 20.268897-14.178193 39.855815 10.71198 54.663763 35.6554 13.809556 23.105355 23.471944 46.315156 25.783094 38.069973 2.101232-7.561157 4.673499-15.333256 7.771075-23.314249 12.550045-32.242435 33.607416-67.895787 64.168456-101.240037 6.196175-6.773707-37.807831-19.219305-64.168456-61.962778s7.561157-120.564814 138.733503-120.564814c169.190096 0 206.997927 56.711747 210.410892 56.449605 12.602269-0.891897 13.496214 0 26.885933 0 16.330624 0 9.556917-1.207287 24.733502 0 3.781602 0.367613 23.524167-14.230416 55.0324-28.828446 36.285155-16.855932 88.271179-33.765111 149.287788-27.621159 193.923598 19.481447 164.306678 81.444225 149.078894 120.564814-15.858564 40.80096-72.097226 59.915818-69.576158 62.488085 46.471827 48.991871 53.770842 79.028628 69.576158 123.977779 3.150823 8.873914 15.280008-14.545806 30.87643-38.069973 16.699261-25.047867 37.387995-50.147958 55.293518-35.6554 14.440335 11.658148 43.322028 60.230183 14.440335 163.203839C963.12014 372.835339 907.249091 396.307283 908.509625 415.684282z"  horiz-adv-x="1024" />

    
    <glyph glyph-name="fabu" unicode="&#58915;" d="M836.820487-104.402187 151.665968-104.402187C76.316494-104.402187 14.985527-43.071221 14.985527 32.278254L14.985527 719.185086C14.985527 794.53456 78.068807 871.636348 155.170594 871.636348L538.927218 871.636348 538.927218 801.543814 153.418281 801.543814C114.867387 801.543814 83.325747 770.002173 83.325747 731.45128L83.325747 34.030568C83.325747-4.520326 114.867387-34.309654 151.665968-34.309654L850.838993-32.557341C889.389886-32.557341 920.931528-1.015699 920.931528 37.535194L920.931528 419.539503 991.024061 419.539503 991.024061 35.782881C991.024061-39.566594 912.16996-104.402187 836.820487-104.402187L836.820487-104.402187 836.820487-104.402187 836.820487-104.402187ZM955.977795 557.972257C936.702348 557.972257 920.931528 573.74308 920.931528 593.018526L919.179215 759.488293 388.22827 254.822048C374.209763 240.803542 351.42969 240.803542 337.411183 254.822048 323.392677 268.840555 323.392677 289.868317 337.411183 302.13451L863.105187 803.296127 710.653925 801.543814C691.378479 801.543814 675.607659 817.314634 675.607659 836.590081 675.607659 855.865527 691.378479 871.636348 710.653925 871.636348L954.225481 871.636348C973.500928 871.636348 989.271748 855.865527 989.271748 838.342394L989.271748 593.018526C991.024061 573.74308 975.253241 557.972257 955.977795 557.972257L955.977795 557.972257 955.977795 557.972257 955.977795 557.972257Z"  horiz-adv-x="1024" />

    
    <glyph glyph-name="qa" unicode="&#58895;" d="M511.982604 832.106808c123.732046 0 235.704257-49.868781 316.864718-131.283022l1.713015-2.187829c79.938634-80.68667 129.343857-191.910844 129.343857-314.647213 0-48.173163-7.854898-94.633311-22.019503-138.847302-13.681604-41.569768-33.241079-80.449263-57.19463-115.640764L880.69006-29.880284999999958c0-18.600637-15.638165-34.226522-34.728966-34.226522l-0.967024 0L511.982604-64.106808c-123.697253 0-235.667417 50.354851-316.847322 131.283022l0 0C113.975844 148.59250199999997 64.095807 260.308887 64.095807 384.023536c0 123.70237 49.868781 235.668441 131.040499 316.827879l0 0C276.312116 782.244166 388.279211 832.106808 511.982604 832.106808L511.982604 832.106808zM829.288366-12.711254000000054L829.288366 145.334295l8.92016 13.08297c21.899776 32.17684 39.009456 66.760496 50.735521 102.405321 12.980639 40.560788 19.572778 81.999572 19.572778 123.165134 0 105.075127-40.651862 203.978694-114.450658 278.473339l-2.14485 2.14485-1.597381 2.052752C715.886597 740.229261 617.153922 780.71023 511.98772 780.71023c-106.146529 0-205.746968-41.24538-280.503579-116.195396-74.80266-74.791403-116.001991-174.402075-116.001991-280.492322 0-105.850793 41.221844-205.483978 115.955942-280.446273 75.213006-74.996065 174.835957-116.287493 280.548604-116.287493L829.288366-12.711254000000054zM689.132256 498.642017c0-21.077038-4.790096-41.542138-14.405081-61.427024-9.614985-19.851117-32.412201-45.356001-68.356854-76.477812-27.482935-24.039509-44.790112-42.971697-51.887764-56.830333-7.028067-13.620206-11.293207-24.074302-12.133342-58.635445l-0.034792 0c0-0.305969 0.105401-0.61296 0.105401-0.953721 0-17.501606-14.440897-31.667234-32.273031-31.667234-17.797341 0-32.238238 14.164604-32.238238 31.667234l0 0.068562c0 0.817622-0.48914 32.484855 3.566222 47.39852 2.13257 13.075807 6.503111 25.91216 13.111622 38.408775 6.608511 12.496615 15.245216 24.27794 25.839505 35.310204 10.629081 11.032264 25.524327 24.7548 44.790112 41.201377 24.475438 21.315468 40.839127 35.753295 49.895387 48.829102 8.531304 12.291954 10.838859 28.330232 10.034541 43.210128-1.39886 25.708522-17.062608 47.670719-35.94363 62.959937-22.167882 17.910928-45.454238 20.804838-75.175143 20.804838-60.454884 0-102.622262-26.048259-115.104551-98.610902-1.747807-17.195637-14.056134-32.382525-32.028461-32.382525-19.125593 0-32.027437 16.514115-32.027437 35.310204l0 2.65548c5.734608 49.748031 24.335245 88.156806 55.803957 115.261117 31.468712 27.070542 72.167646 40.622186 122.132618 40.622186 51.468209 0 93.740988-13.927197 126.818337-41.712007C672.628374 575.8013510000001 689.132256 540.8308850000001 689.132256 498.642017L689.132256 498.642017 689.132256 498.642017zM511.964184 197.98646900000006c-21.223371 0-38.426171-16.888645-38.426171-37.694507s17.202801-37.659715 38.426171-37.659715c21.188578 0 38.391379 16.854876 38.391379 37.659715S533.152762 197.98646900000006 511.964184 197.98646900000006L511.964184 197.98646900000006 511.964184 197.98646900000006z"  horiz-adv-x="1024" />

    
    <glyph glyph-name="weibo1" unicode="&#58935;" d="M36.795021 813.463192L36.795021 813.463192 36.795021 813.463192ZM704.237279 372.47859600000004c-9.210779 1.846044-15.190981 4.604878-17.941628 8.278547-2.749624 3.672646-3.210112 7.05058-1.384533 10.133801l2.769067 4.595668c0.607844 0.608867 1.226944 1.530866 1.855254 2.769067 0.62831 1.237177 1.855254 3.848655 3.682879 7.835456 1.826602 3.987824 3.211135 7.973602 4.1536 11.961426 0.942465 3.986801 1.708921 8.895601 2.297322 14.728446 0.589424 5.832845 0.431835 11.361769-0.470721 16.58677-0.903579 5.225001-2.749624 10.900258-5.539156 17.027815-2.790556 6.127558-6.628978 11.656481-11.519358 16.585747-8.601912 8.601912-19.806091 14.129812-33.613562 16.585747-13.807471 2.454912-27.613918 2.611477-41.421388 0.470721-13.806447-2.142803-26.847461-4.901637-39.122019-8.278547-12.274558-3.377934-22.398126-6.598278-30.372751-9.664104l-11.960403-5.538133c-6.147-1.846044-11.213389-3.074012-15.201214-3.682879-3.987824-0.60989-7.060813-0.453325-9.219989 0.470721-2.160199 0.923022-3.848655 1.846044-5.068436 2.768043-1.218758 0.923022-1.680269 3.072989-1.384533 6.451946 0.296759 3.377934 0.599657 6.294356 0.912789 8.749268 0.313132 2.452865 1.078565 6.293333 2.297322 11.519358 1.217734 5.226025 2.14178 9.369392 2.768043 12.432147 0 7.364735-0.461511 14.267958-1.384533 20.709671-0.923022 6.441713-2.916423 13.649881-5.981225 21.623483-3.063779 7.973602-7.512091 14.415314-13.345959 19.326161-5.833869 4.910846-13.198603 8.896624-22.095227 11.960403-8.896624 3.063779-20.406772 3.986801-34.527374 2.769067-14.121626-1.218758-30.079062-4.900613-47.873334-11.04659-21.485337-7.364735-43.275619-18.254759-65.369823-32.67212-22.094204-14.415314-41.273009-29.449729-57.534368-45.101197-16.261359-15.652492-31.149441-30.843472-44.661176-45.573965-13.511735-14.731516-23.950482-26.701129-31.315216-35.912931l-10.133801-14.728446c-20.249183-26.397207-35.282574-52.79339-45.102221-79.187527-9.819646-26.396183-14.424524-46.340421-13.81668-59.83476l0-19.326161c3.693112-29.458939 12.746302-55.855122 27.161616-79.187527 14.415314-23.331381 31.599695-42.205241 51.55519-56.620555 19.955494-14.415314 43.434232-26.689872 70.437236-36.82572 27.004027-10.133801 52.937676-17.498536 77.804017-22.095227 24.864294-4.595668 51.103912-7.816013 78.716806-9.664104 45.426609-3.692089 92.533486-0.166799 141.317563 10.57587 48.786123 10.744715 94.202499 29.313629 136.25322 55.708789 42.049698 26.396183 71.666226 58.006112 88.849584 94.830809 10.429537 21.48636 15.800871 41.74373 16.116049 60.776202 0.315178 19.031449-2.907213 34.527374-9.664104 46.486754-6.756891 11.960403-15.507182 22.546505-26.248827 31.758308-10.741645 9.211802-20.866237 15.968693-30.372751 20.268626-9.506515 4.299933-17.941628 7.059789-25.305339 8.278547L704.237279 372.47859600000004 704.237279 372.47859600000004zM423.455361 86.158545c-66.284659-3.064802-122.592083 9.829879-168.924317 38.680974-46.330188 28.851095-69.495794 65.370847-69.494771 109.561301 0 43.579541 23.01825 81.170694 69.053726 112.772436 46.036499 31.600719 102.500489 48.942689 169.394015 52.02591 66.893526 3.082198 123.358539-7.964392 169.392992-33.141818 46.036499-25.177426 69.053726-59.546188 69.053726-103.108333 0-44.190455-23.478737-83.931574-70.438259-119.224382-46.958498-35.291784-102.962-54.470589-168.009482-57.533344L423.455361 86.158545 423.455361 86.158545zM396.765489 341.19305499999996c-17.793248-1.846044-33.750685-5.990434-47.873334-12.432147-14.121626-6.442736-25.168216-13.807471-33.140795-22.095227-7.972579-8.28878-14.728446-17.185404-20.268626-26.689872-5.539156-9.505491-9.378601-18.86465-11.519358-28.075429-2.140757-9.210779-3.524267-17.646915-4.1536-25.306362-0.630357-7.659447-0.933255-13.638625-0.913812-17.940604l0.913812-7.365758 0-3.682879c0-1.846044 0.618077-5.5279 1.855254-11.04659 1.237177-5.519714 2.925632-10.587126 5.067412-15.202237 2.14178-4.615111 5.66707-9.682523 10.57587-15.201214 4.909823-5.51869 10.743692-10.124592 17.499559-13.81668 40.517809-19.639293 78.264505-25.619494 113.243157-17.940604 34.977629 7.67889 63.209624 25.324782 84.695984 52.937676 8.601912 10.428513 14.278191 23.322172 17.028838 38.680974s2.131547 30.853705-1.855254 46.486754c-3.987824 15.634072-10.891048 29.90203-20.709671 42.805922-9.818623 12.902868-24.39255 22.880103-43.719734 29.930683-19.326161 7.05058-41.577954 9.045003-66.756403 5.981225L396.765489 341.19305499999996 396.765489 341.19305499999996zM363.621625 167.17267300000003c-3.692089-0.607844-7.217379-0.765433-10.57587-0.470721-3.358491 0.293689-6.431479 0.913812-9.219989 1.855254-2.789533 0.941442-5.548366 2.01182-8.278547 3.210112-2.729158 1.197268-5.027503 2.885723-6.892991 5.067412-1.864464 2.180666-3.553942 4.331655-5.067412 6.451946-1.51347 2.12029-2.741437 4.576225-3.682879 7.364735-0.942465 2.790556-1.403976 5.705955-1.384533 8.749268 0 6.756891 1.846044 13.355169 5.538133 19.796882 3.692089 6.441713 8.759501 11.970636 15.201214 16.58677 6.441713 4.615111 13.649881 7.227612 21.624507 7.836479 5.51869 0.607844 10.890025 0.451278 16.115026-0.471744 5.225001-0.921999 9.673313-2.453888 13.345959-4.595668 3.672646-2.14178 6.894014-4.596691 9.664104-7.365758 2.77009-2.768043 4.76349-5.989411 5.981225-9.66308 1.216711-3.674693 1.835811-7.661494 1.855254-11.961426 0-6.755868-1.9934-13.19758-5.981225-19.325138-3.986801-6.128581-9.358135-11.343349-16.115026-15.643282-6.756891-4.299933-14.121626-6.755868-22.095227-7.365758L363.621625 167.17267300000003 363.621625 167.17267300000003zM441.86771 233.45733199999995c-4.300956-3.063779-8.750291-4.448312-13.346983-4.1536-4.595668 0.294712-7.816013 2.288113-9.66308 5.981225l-1.856277 3.682879c-0.607844 1.237177-0.912789 2.465145-0.912789 3.682879l0 3.682879c0 1.846044 0.304945 3.377934 0.912789 4.596691l1.856277 3.682879c0.607844 1.237177 1.530866 2.160199 2.768043 2.768043l2.768043 3.682879c4.910846 3.693112 9.664104 5.225001 14.258749 4.596691 4.595668-0.629333 7.816013-3.084245 9.664104-7.365758 1.845021-2.454912 2.610454-5.214768 2.296299-8.278547-0.314155-3.063779-1.237177-5.980201-2.768043-8.749268-1.531889-2.769067-3.52529-5.380544-5.981225-7.835456L441.86771 233.45733199999995 441.86771 233.45733199999995zM768.695337 425.889039c3.692089 0 7.071046 0.923022 10.133801 2.769067 3.063779 1.845021 5.51869 4.143367 7.364735 6.891967 1.847068 2.750647 3.075035 5.66707 3.682879 8.749268 0.608867 0.608867 0.913812 1.531889 0.913812 2.769067 7.363711 69.976748-17.186428 109.874433-73.650417 119.695103-16.576537 3.063779-31.925107 3.367701-46.045709 0.912789-4.300956 0-7.983835-1.070378-11.04659-3.210112-3.063779-2.140757-5.676279-4.898567-7.836479-8.278547-2.160199-3.377934-3.230578-6.904247-3.210112-10.57587 0-6.147 2.15099-11.360745 6.451946-15.642259 4.300956-4.281513 9.515724-6.432503 15.643282-6.451946 47.88152 11.056823 73.658603-4.290723 77.331249-46.045709 1.237177-10.428513 0.618077-20.24816-1.855254-29.458939 0-6.148024 2.15099-11.361769 6.451946-15.643282 4.299933-4.281513 9.515724-6.432503 15.642259-6.451946L768.695337 425.889039 768.695337 425.889039zM753.052055 685.489542c-27.005051 6.147-63.22088 4.919033-108.648512-3.683902-0.607844 0-1.226944-0.303922-1.855254-0.912789l-0.912789-1.855254-0.912789-0.912789c-6.755868-1.846044-12.284791-5.685489-16.585747-11.519358-4.300956-5.833869-6.450922-12.128225-6.450922-18.883069 0-9.210779 3.072989-16.880459 9.219989-23.008017 6.147-6.128581 13.511735-9.201569 22.095227-9.219989l2.768043 0c0.608867 0 1.9934 0.303922 4.154623 0.912789 2.160199 0.607844 4.457522 1.070378 6.891967 1.384533 2.435469 0.314155 5.046946 0.932232 7.836479 1.855254 2.788509 0.923022 5.244444 1.846044 7.365758 2.769067 2.12029 0.921999 6.264681 1.384533 12.432147 1.384533 6.167466 0 13.688767-0.462534 22.565948-1.384533 8.877181-0.923022 18.697851-3.221368 29.459962-6.892991 10.763135-3.672646 21.505803-8.278547 32.229029-13.81668 10.723226-5.53711 21.465894-13.20679 32.229029-23.008017 10.763135-9.800203 20.122293-21.152762 28.075429-34.054607 15.96767-36.21583 19.041682-71.204715 9.219989-104.965633 0-0.608867-0.156566-1.227967-0.470721-1.856277-0.314155-0.62831-0.774643-2.160199-1.38351-4.595668-0.608867-2.435469-1.227967-4.732791-1.855254-6.892991-0.629333-2.160199-1.24741-4.919033-1.856277-8.278547-0.608867-3.358491-0.912789-6.274914-0.912789-8.749268 0-5.51869 1.531889-10.123568 4.596691-13.815657 3.063779-3.692089 6.904247-6.304589 11.519358-7.836479 4.615111-1.531889 9.987468-2.297322 16.115026-2.296299 17.185404 0 27.309996 10.438747 30.372751 31.31624 7.364735 23.940249 11.509125 46.801932 12.432147 68.581981 0.924045 21.782096-0.607844 40.958854-4.595668 57.534368-3.987824 16.575514-9.968026 32.072463-17.941628 46.487777-7.972579 14.415314-17.184381 26.690896-27.633361 36.823674-10.447956 10.133801-22.11467 19.34458-34.998095 27.633361-12.883425 8.287757-25.315572 14.887059-37.296441 19.796882-11.979846 4.909823-24.411993 8.896624-37.295418 11.960403L753.052055 685.491589 753.052055 685.489542z"  horiz-adv-x="1024" />

    
    <glyph glyph-name="active-people" unicode="&#58986;" d="M880.733102 115.086175 754.289907-10.152411 627.887546 115.086175 624.151214 111.349842 620.476134 115.086175 436.456673-67.279499 497.769271-128 624.151214-2.740998 750.594409-128 754.289907-124.304502 758.046656-128 942.025282 54.263588 880.733102 115.086175ZM819.359253 116.842046l0 140.34725c-38.343343 37.261235-83.608087 67.396898-133.752522 88.569446 80.68844 54.064521 133.752522 145.574032 133.752522 249.333812 0 166.093233-135.937154 300.744108-303.622921 300.744108s-303.602504-134.650875-303.602504-300.764525c0-103.657694 52.982414-195.126371 133.527934-249.211309C190.695857 280.403557 81.974718 128.07146 81.974718-49.455357l86.731906 0c0 189.858755 155.35383 343.76297 347.009291 343.76297C646.487538 294.307613 760.149619 222.643538 819.359253 116.842046L819.359253 116.842046zM298.865734 595.072138c0 118.643857 97.124217 214.849304 216.870599 214.849304s216.870599-96.205447 216.870599-214.849304-97.124217-214.849304-216.870599-214.849304S298.865734 476.448698 298.865734 595.072138L298.865734 595.072138z"  horiz-adv-x="1024" />

    
    <glyph glyph-name="tag" unicode="&#58894;" d="M410.425668 577.601881c0-56.936671-46.44381-103.38048-103.38048-103.38048s-103.38048 46.44381-103.38048 103.38048 46.44381 103.38048 103.38048 103.38048S410.425668 634.538552 410.425668 577.601881zM341.448009 577.601881c0 19.093566-15.48127 34.402822-34.402822 34.402822s-34.402822-15.48127-34.402822-34.402822c0-18.921552 15.48127-34.402822 34.402822-34.402822C325.966739 543.027045 341.448009 558.508315 341.448009 577.601881zM616.154544 712.2889299999999l312.377625-317.19402c19.953637-19.437594 31.478582-47.30388 31.478582-76.718293 0-29.242399-11.352931-56.936671-31.134554-76.030237L645.568957-33.56425300000001c-39.219217-38.015118-113.873341-38.187133-153.264572 0.172014L140.1915 310.98001c-60.720981 59.00084-76.202251 82.566773-76.202251 162.553334l0 151.544431c0 142.943726 29.070385 206.760961 201.256509 206.760961l142.083655 0C494.712582 832.010751 545.628759 781.782631 616.154544 712.2889299999999zM597.57702 15.975811000000022l283.30724 275.738619c6.536536 6.364522 10.148833 15.997312 10.148833 26.662187 0 10.836889-3.78431 20.813707-11.180917 27.866286L596.372921 635.054594 567.646565 663.092894c-70.181757 69.321687-103.724509 99.940198-160.489165 99.940198l-142.083655 0c-123.334117 0-132.278851-19.093566-132.278851-137.783303l0-151.544431c0-54.528473 1.548127-61.065009 55.388544-113.185285l352.112884-344.544263c6.880564-6.70855 17.201411-10.492861 28.554342-10.492861C580.203595 5.48294999999996 590.696456 9.267259999999965 597.57702 15.975811000000022z"  horiz-adv-x="1024" />

    
    <glyph glyph-name="mima" unicode="&#59081;" d="M868.864 519.68 210.432 519.68c-1.536 129.536 77.824 267.776 241.152 307.712 112.64 25.6 233.984-18.432 306.688-109.056 8.192-11.776 32.256-20.48 52.224-6.144 22.016 20.992 3.072 44.544-2.048 49.664-91.136 100.864-229.376 151.552-368.64 120.32C263.68 842.752 143.36 691.2 139.264 515.584c-35.328-12.288-71.168-50.688-71.168-84.48l0-471.04c0-40.96 53.248-83.456 94.208-83.456l705.024 0c40.96 0 91.136 43.52 91.136 84.48L958.464 434.176C957.952 475.136 919.552 519.68 868.864 519.68zM901.632 0.512c0-40.96-26.112-67.072-67.072-67.072L191.488-66.56c-40.96 0-67.072 26.112-67.072 67.072l0.512 395.776c0 40.96 26.112 67.072 67.072 67.072L834.56 463.36c40.96 0 67.072-26.112 67.072-67.072L901.632 0.512zM525.312 346.624c-47.616 0-86.528-38.912-86.528-86.528 0-34.304 20.48-64 49.664-77.824L488.448 87.04c0-20.48 16.384-36.864 36.864-36.864s36.864 16.384 36.864 36.864l0 95.232c29.184 13.824 49.664 43.52 49.664 77.824C611.84 307.712 572.928 346.624 525.312 346.624zM845.312 583.168c19.456 0 35.328 15.872 35.328 35.328s-15.872 35.328-35.328 35.328c-19.456 0-35.328-15.872-35.328-35.328S825.856 583.168 845.312 583.168z"  horiz-adv-x="1024" />

    
    <glyph glyph-name="ren" unicode="&#58959;" d="M371.2 256l-0.512 0.512C302.08 310.784 272.896 366.08 272.896 441.856c0 17.408-13.824 31.232-31.232 31.232-17.408 0-31.232-13.824-31.232-31.232 0-83.456 30.208-151.04 94.208-210.944-97.28-76.288-151.552-154.624-177.664-256-4.096-16.896 5.632-33.792 22.528-37.888 2.56-0.512 5.12-1.024 7.68-1.024 13.824 0 26.624 9.216 30.208 23.552 25.088 96.768 80.896 169.984 185.344 244.736 13.824 10.24 17.408 29.696 7.168 43.52-2.048 3.584-5.12 6.144-8.704 8.192z m526.848-280.576c-26.624 100.864-79.872 178.688-175.104 253.44C788.48 288.768 819.2 357.376 819.2 441.856c0 17.408-13.824 31.232-31.232 31.232s-31.232-13.824-31.232-31.232c0-75.776-30.72-133.12-98.816-186.368-4.096-2.048-8.192-5.12-11.264-9.728-10.24-13.824-6.656-33.792 7.168-43.52 104.448-74.752 157.696-145.408 183.808-243.2 3.584-13.824 16.384-23.04 30.208-23.04 2.56 0 5.12 0.512 8.192 1.024 16.384 4.608 26.624 21.504 22.016 38.4zM237.568 507.392c16.896 3.072 28.16 18.944 25.6 35.84 0 1.024-14.336 88.576 39.936 152.576 40.96 48.64 111.104 73.216 208.896 73.216 97.792 0 168.448-24.576 209.408-73.216 54.272-64 40.96-151.552 40.96-152.576-3.072-16.896 8.704-33.28 25.6-35.84 1.536-0.512 3.584-0.512 5.12-0.512 14.848 0 28.16 10.752 30.72 26.112 1.024 4.608 18.944 116.224-54.272 202.752-53.76 63.488-140.288 95.744-257.536 95.744s-203.776-32.256-257.024-95.744C181.76 648.704 200.704 537.088 201.728 532.48c2.56-16.896 18.944-28.16 35.84-25.088z m163.84 21.504c-17.408 0-31.232-13.824-31.232-31.232v-33.28c0-17.408 13.824-31.232 31.232-31.232 17.408 0 31.232 13.824 31.232 31.232v33.28c0 17.408-13.824 31.232-31.232 31.232z m222.208 0c-17.408 0-31.232-13.824-31.232-31.232v-33.28c0-17.408 13.824-31.232 31.232-31.232s31.232 13.824 31.232 31.232v33.28c0 17.408-13.824 31.232-31.232 31.232z m-34.304-132.096c-14.336 9.216-33.792 5.632-43.008-8.704 0 0-13.824-19.968-34.304-19.968-19.968 0-32.256 17.92-33.28 19.456-9.216 14.336-28.16 18.944-43.008 9.728-14.848-9.216-18.944-28.16-10.24-43.008 11.264-17.92 41.984-48.64 86.016-48.64 44.032 0 75.264 30.208 86.528 48.128 9.728 14.848 5.632 33.792-8.704 43.008z"  horiz-adv-x="1024" />

    
    <glyph glyph-name="diaoyan" unicode="&#58880;" d="M850.686 561.346c0 180.42-146.775 327.197-327.194 327.197-180.419 0-327.196-146.777-327.196-327.197 0-165.587 123.645-302.819 283.456-324.263v-65.667h-29.165v-291.959h145.816v291.959h-29.157v65.669c159.807 21.45 283.44 158.678 283.44 324.261zM319.497 561.346c0 112.484 91.51 203.996 203.995 203.996 112.483 0 203.994-91.512 203.994-203.996 0-112.481-91.511-203.995-203.994-203.995-112.484 0-203.995 91.513-203.995 203.995z"  horiz-adv-x="1024" />

    
    <glyph glyph-name="event" unicode="&#58926;" d="M762.764226 787.734013C694.919634 855.574606 604.719142 892.937425 508.776447 892.937425c-95.944695 0-186.144187-37.362819-253.986779-105.203412-67.840592-67.842592-105.203411-158.043084-105.203411-253.986779 0-64.071115 17.08863-126.977392 49.418147-181.914773 28.243083-47.991345 67.419651-88.91667 113.988193-119.254463V57.36629500000004c0-45.643671 37.132851-82.778521 82.777521-82.778521h225.579718c45.643671 0 82.779521 37.13485 82.779521 82.778521V232.29003799999998c46.681527 30.315796 85.95808 71.257119 114.283152 119.303456 32.421504 54.997373 49.556128 117.984639 49.556128 182.15274-0.001 95.943695-37.363819 186.145187-105.204411 253.987779M621.346837 37.60903499999995H395.769118c-10.893489 0-19.75626 8.862771-19.75626 19.75826v74.364687h265.092239v-74.364687c0-10.895489-8.862771-19.75826-19.75826-19.75826m142.773201 345.989021c-25.953401-44.024895-63.051257-80.818793-107.280123-106.406245l-15.732819-9.101738v-73.33783H376.012858v73.5578l-15.688825 9.111736c-44.125881 25.615448-81.12575 62.398347-107.005161 106.374249-26.633307 45.257724-40.710355 97.109534-40.710355 149.950206 0 79.11103 30.806728 153.484716 86.743971 209.423959 55.939243 55.940243 130.314929 86.745971 209.424959 86.745971 79.11103 0 153.483716-30.805728 209.423959-86.745971 55.939243-55.939243 86.745971-130.313929 86.74597-209.423959-0.002-52.918662-14.120042-104.841461-40.827338-150.148178M618.0023-64.97773900000004H399.549594c-17.402587 0-31.509631-14.107044-31.509631-31.510631s14.107044-31.51163 31.509631-31.51163h218.452706c17.403587 0 31.51163 14.108044 31.511631 31.51163s-14.108044 31.51063-31.511631 31.510631M132.639607 800.927184z"  horiz-adv-x="1024" />

    
    <glyph glyph-name="whcat1" unicode="&#58969;" d="M610.468864 384.591872c-17.014784 0-34.039808-15.777792-34.039808-35.244032 0-15.77472 17.025024-31.6416 34.039808-31.6416 25.561088 0 43.800576 15.86688 43.800576 31.6416 0.002048 19.46624-18.239488 35.244032-43.800576 35.244032M498.608128 548.7861760000001c26.758144 0 43.777024 17.015808 43.777024 42.566656 0 26.758144-17.016832 42.535936-43.777024 42.535936-25.526272 0-49.85856-15.777792-49.85856-42.535936-0.001024-25.549824 24.332288-42.566656 49.85856-42.566656M370.92864 194.91328c-44.997632 0-77.831168 7.292928-120.39168 19.465216l-122.810368-62.000128 35.284992 104.537088C76.659712 317.70624 25.6 394.365952 25.6 487.985152c0 165.368832 155.635712 291.847168 345.32864 291.847168 167.817216 0 317.382656-99.72224 346.55744-240.780288-12.148736 2.441216-23.087104 3.64032-32.820224 3.64032-165.385216 0-293.049344-124.056576-293.049344-273.59744 0-25.55904 3.647488-48.620544 9.718784-72.97536-9.718784-1.206272-20.673536-1.206272-30.406656-1.206272m507.087872-119.1936l24.300544-87.552-92.413952 52.308992c-35.264512-7.283712-69.307392-18.266112-104.56576-18.266112-162.952192 0-291.856384 111.910912-291.856384 250.560512 0 138.569728 128.902144 250.456064 291.856384 250.456064C859.764736 523.227136 998.4 411.3408 998.4 272.771072c0-77.857792-52.283392-147.141632-120.383488-197.051392M257.855488 633.888768c-25.535488 0-52.291584-15.777792-52.291584-42.535936 0-25.549824 26.75712-42.566656 52.291584-42.566656 24.308736 0 43.776 17.015808 43.776 42.566656 0 26.758144-19.474432 42.535936-43.776 42.535936m543.540224-249.296896c-18.248704 0-34.04288-15.777792-34.04288-35.244032 0-15.77472 15.794176-31.6416 34.04288-31.6416 24.328192 0 42.576896 15.86688 42.576896 31.6416 0 19.46624-18.248704 35.244032-42.576896 35.244032m0 0"  horiz-adv-x="1024" />

    
    <glyph glyph-name="weibo" unicode="&#58988;" d="M832.9 462.3c13.4 0 24.5 9.7 26.5 22.4 0.2 1 0.3 1.8 0.3 2.8 20.1 178.4-148.2 147.6-148.2 147.6-14.9 0-26.9-11.8-26.9-26.9 0-14.7 12-26.5 26.9-26.5 120.8 26.4 94.3-92.9 94.3-92.9-0.1-14.7 12.1-26.5 27.1-26.5z m-19.6 311.3c-58.1 13.5-118.1 1.8-134.9-1.3-1.4-0.2-2.5-1.3-3.7-1.5-0.5-0.2-1-0.7-1-0.7-16.6-4.7-28.6-19.7-28.6-37.5 0-21.2 17.4-38.7 39.2-38.7 0 0 21.1 2.8 35.5 8.3 14.2 5.7 134.9 4.2 194.7-94.9 32.6-72.4 14.4-120.8 12-128.6 0 0-7.8-18.9-7.8-37.4 0-21.4 17.4-34.9 39.2-34.9 18.1 0 33.3 2.5 37.7 32.7h0.2c64.6 211.4-78.4 310.7-182.5 334.5zM403.9 46.2c-163.8-7.5-296.2 73.4-296.2 181.2 0 107.9 132.5 194.4 296.2 201.9 163.9 7.5 296.6-59.2 296.6-166.8 0-107.7-132.7-209-296.6-216.3z m348.8 350.2c-38.9 7.5-19.9 28-19.9 28s38 61.9-7.6 106.9c-56.4 55.7-193.8-7-193.8-7-52.4-16-38.5 7.3-31.1 47.1 0 46.9-16.2 126.1-156 79.4C204.6 603.6 84.8 438.6 84.8 438.6 1.5 329 12.5 244.2 12.5 244.2 33.3 57 234.9 5.6 391.7-6.6c164.9-12.7 387.7 56.1 455.1 197.5 67.6 141.8-55.1 197.8-94.1 205.5zM426.9 226.2c-10.5-7.7-23.3-6.7-28.7 2.7-5.7 9-3.5 23.4 6.9 30.9 12.2 9 24.8 6.3 30.4-2.7 5.4-9 1.5-22.9-8.6-30.9z m-97.2-81.6c-30.8-3.5-55.6 14-55.6 39.4 0 25.2 22 51.7 52.7 54.9 35.3 3.3 58.3-16.7 58.3-42.2 0.2-25.2-24.8-48.6-55.4-52.1z m41.5 213.8c-164.8-19-145.7-171.2-145.7-171.2s-1.7-48.2 44.1-72.7c96.3-51.6 195.7-20.3 245.7 43.5 50.3 63.7 20.9 219.2-144.1 200.4z"  horiz-adv-x="1024" />

    
    <glyph glyph-name="shouji" unicode="&#58886;" d="M909.867 79.867c-28.133 0-51.067-22.933-51.067-51.067 0-28.133 22.933-51.067 51.067-51.067 28.133 0 51.067 22.933 51.067 51.067 0 28.267-22.933 51.067-51.067 51.067zM1162.533 884h-505.467c-42.533 0-77.067-34.533-77.067-77.067v-848.267c0-42.533 34.533-77.067 77.067-77.067h505.467c42.533 0 77.067 34.533 77.067 77.067v848.267c0.133 42.533-34.533 77.067-77.067 77.067zM657.067 832.533h505.467c14.133 0 25.733-11.6 25.733-25.733v-635.467h-556.8v635.6c0 14.133 11.467 25.6 25.6 25.6zM1162.533-67.067h-505.467c-14.133 0-25.733 11.467-25.733 25.733v156.933h556.933v-156.933c0-14.267-11.467-25.733-25.733-25.733z"  horiz-adv-x="1821" />

    
    <glyph glyph-name="remen" unicode="&#58884;" d="M705.877658 436.118304c2.675852-1.337926 8.027557-3.40563 16.176743-6.081483 4.013778-2.675852 14.109039-7.419408 30.285782-14.109039 0-4.013778-0.729778-10.825039-2.067704-20.190521-1.337926-16.176743-2.675852-29.677634-4.013778-40.381043-8.027557-44.394821-27.001782-66.653047-56.557786-66.653047-45.854377 0-70.058677 27.60993-72.734529 82.82979v20.190522l-38.434969-54.490082c-4.013778 4.013778-10.825039 9.365483-20.190521 16.176743-9.487112 8.027557-16.906521 13.500891-22.258226 16.176743-16.176743-33.691412-39.772895-63.369046-70.666825-88.911272-14.838817 17.514669-30.285782 34.299561-46.462525 50.476303 28.339708 21.528448 49.868155 47.070673 64.706972 76.748308-14.838817 10.825039-29.677634 20.190521-44.394821 28.339707 0-8.027557 0.608148-16.176743 2.067704-24.204299-16.176743-2.675852-31.623708-6.081482-46.462525-10.095261V341.368809c0-37.705191-18.122817-57.287564-54.490082-58.62549-12.162965 0-28.947856-0.729778-50.476304-2.067704-4.013778 24.2043-8.757335 44.394821-14.109039 60.571564 8.027557-1.337926 20.190521-2.067704 36.367265-2.067704 12.162965 0 18.122817 5.351704 18.122817 16.176743v36.367265a561.199192 561.199192 0 0 0-50.476304-10.095261l-8.027556 60.571564c5.351704 0 14.109039 1.337926 26.272004 4.013779 14.838817 1.337926 25.542226 2.675852 32.353486 4.013778v54.490082h-54.490082v58.62549h54.490082v60.571564h64.706972v-60.571564h46.462525v-58.62549h-46.462525v-44.394821c4.013778 0 10.825039 1.337926 20.190521 4.013778 12.162965 1.337926 20.920299 2.675852 26.272004 4.013778-1.337926-9.487112-2.067704-19.582373-2.067704-30.285782l34.299561 46.462525c10.825039-5.351704 20.190521-11.433187 28.339708-18.122817 2.675852 12.162965 4.013778 24.934078 4.013778 38.434969h-48.530229v56.557785h50.476303v60.571565h62.639269v-60.571565H679.848913V543.274023c-2.675852-63.369046-3.40563-119.197054-2.067704-167.727283 0-12.162965 4.013778-18.122817 12.162965-18.122818 6.689631 0 10.095261 5.351704 10.095261 16.176743 2.554223 17.39304 4.500297 38.313339 5.838223 62.517639zM326.149899 278.607911l58.62549-24.2043c-16.176743-35.029338-34.299561-70.058677-54.490082-105.088015l-58.62549 28.339707c24.2043 37.583561 42.327117 71.274973 54.490082 100.952608z m84.775864-26.272004l60.571564 16.176743c4.013778-9.487112 9.365483-24.934078 16.176744-46.462525 8.027557-20.190521 13.500891-35.029338 16.176743-44.394822l-62.639269-18.122817c-9.365483 34.907709-19.460744 65.801639-30.285782 92.803421z m113.237202 4.013778l60.571564 18.122818c1.337926-4.013778 4.013778-10.095261 8.027557-18.122818 8.027557-21.528448 18.122817-45.124599 30.285782-70.666825l-62.639268-22.258225c-1.337926 2.675852-2.675852 7.419408-4.013779 14.109039-12.041335 31.01556-22.866374 57.287564-32.231856 78.816011zM558.462525 430.158451c6.689631-4.013778 16.784891-10.095261 30.285782-18.122817 12.162965-8.027557 21.528448-14.109039 28.339708-18.122818v111.169498h-48.530229c-2.675852-25.785485-6.081482-50.719563-10.095261-74.923863zM637.278537 258.417389l58.62549 26.272004c16.176743-29.677634 32.961634-65.315121 50.476303-107.03409l-60.571564-24.204299c-13.500891 34.907709-29.677634 69.937047-48.530229 104.966385zM512 884.931702c-275.126262 0-498.195035-223.068773-498.195035-498.195035S236.873738-111.458368 512-111.458368 1010.195035 111.488775 1010.195035 386.736667 787.126262 884.931702 512 884.931702z m0-930.466801C273.241002-45.535099 79.849863 147.97767 79.849863 386.736667S273.241002 818.886804 512 818.886804s432.150137-193.512769 432.150137-432.150137S750.637368-45.535099 512-45.535099z"  horiz-adv-x="1024" />

    
    <glyph glyph-name="video" unicode="&#58944;" d="M723.884246 654.66142h-423.771562c-93.604888 0-169.500439-76.532047-169.500439-170.941254v-199.439308c0-94.409207 75.895551-170.941254 169.500439-170.941254h423.771562c93.616144 0 169.501462 76.532047 169.501462 170.941254V483.720166c0 94.409207-75.884294 170.941254-169.501462 170.941254z m120.290667-335.802023c0-86.312808-71.39198-156.307975-159.455665-156.307975H339.268472c-88.054475 0-159.444409 69.995167-159.444409 156.307975V449.142649c0 86.311785 71.389934 156.306952 159.444409 156.306952h345.450776c88.064708 0 159.455665-69.995167 159.455665-156.306952v-130.283252z m-418.043094-57.596789l221.437321 122.859165-221.437321 122.858143v-245.717308z"  horiz-adv-x="1024" />

    
    <glyph glyph-name="zan" unicode="&#58883;" d="M897.9 473.5h-246c95.3 340.8-65.7 358.2-65.7 358.2-68.2 0-54.1-52.2-59.2-60.9 0-166.6-182.9-297.2-182.9-297.2V1c0-46.6 65.7-63.4 91.4-63.4h369.6c34.8 0 63.1 88.3 63.1 88.3 91.4 301 91.4 390.5 91.4 390.5 0.1 62-61.7 57.1-61.7 57.1zM243.2 473.3H96c-30.4 0-30.9-28.9-30.9-28.9l30.4-476.6c0-30.3 31.4-30.3 31.4-30.3h127.5c26.6 0 26.3 20.1 26.3 20.1V437.2c0 36.6-37.5 36.1-37.5 36.1z"  horiz-adv-x="1024" />

    
    <glyph glyph-name="tiwen" unicode="&#59327;" d="M513.343679-127.99808a515.388457 515.388457 0 0 0-226.110445 52.41564l-166.910853-21.82385a78.719459 78.719459 0 0 0-69.567522 26.239819 78.911457 78.911457 0 0 0-18.87987 62.207573l21.82385 166.910852a510.268492 510.268492 0 0 0 97.407331 588.091957A508.668503 508.668503 0 0 0 513.15168 895.99488c136.831059 0 265.342176-53.247634 362.045511-149.950969C971.964526 649.340576 1025.21216 520.76546 1025.21216 383.9984s-53.247634-265.342176-150.014969-362.10951A508.412505 508.412505 0 0 0 513.343679-127.99808z m-220.478484 117.439193c5.119965 0 10.11193-1.215992 14.655899-3.583976A451.004899 451.004899 0 0 1 513.343679-63.99852a444.796942 444.796942 0 0 1 316.605823 131.135098C914.556921 151.743997 961.2126 264.319223 961.2126 383.9984s-46.655679 232.190404-131.263098 316.797822S632.830858 831.99532 513.15168 831.99532s-232.190404-46.59168-316.797822-131.199098a446.52493 446.52493 0 0 1-81.215441-522.492408 31.99978 31.99978 0 0 0 3.263977-18.81587l-23.103841-176.702786a14.719899 14.719899 0 0 1 3.583976-11.775919c2.815981-3.263978 6.847953-5.119965 11.071923-5.119964l178.750772 23.23184a23.23184 23.23184 0 0 0 4.159971 0.319998zM513.791676 217.727543a31.99978 31.99978 0 0 0-31.99978 31.99978c0 55.23162 24.511831 108.735252 65.53555 143.039017 6.911952 5.75996 14.335901 11.58392 21.823849 17.40788 21.631851 16.895884 44.031697 34.303764 55.615618 54.463626 15.99989 27.839809 11.263923 67.967533-11.327922 95.551343-28.543804 34.87976-79.167456 38.591735-99.647315 38.591734-116.479199 0-121.471165-93.823355-121.663164-104.511281-0.319998-17.599879-16.639886-29.631796-32.319777-31.551783a31.871781 31.871781 0 0 0-31.679783 31.99978c0.191999 58.1116 39.29573 167.998845 185.662724 167.998845 62.52757 0 116.863197-22.591845 149.182974-62.015574 39.423729-48.06367 46.59168-117.183194 17.343881-167.998845-17.791878-30.975787-46.463681-53.311633-71.743507-73.087497a526.716379 526.716379 0 0 1-20.159861-15.935891 123.199153 123.199153 0 0 1-42.623707-93.951354 31.99978 31.99978 0 0 0-31.99978-31.99978zM542.591478 141.12007a32.255778 32.255778 0 0 0-42.495708-42.495708 30.015794 30.015794 0 0 0-16.319888 16.319888 32.255778 32.255778 0 0 0 42.495708 42.495708c7.29595-2.94398 13.439908-9.087938 16.319888-16.319888z"  horiz-adv-x="1025" />

    
    <glyph glyph-name="msg1" unicode="&#58927;" d="M136.023 741.796v-604h92v-208l288 208h398v604h-778z m719-544H498.69l-212.354-152.51-0.312 151.51h-90v486h659v-485zM301.375 500.261h324.993c10.904 0 19.744 8.84 19.744 19.746 0 10.905-8.84 19.745-19.744 19.745H301.375c-10.905 0-19.745-8.84-19.745-19.745-0.001-10.906 8.839-19.746 19.745-19.746zM301.375 368.692h462.983c10.905 0 19.745 8.84 19.745 19.746 0 10.904-8.84 19.744-19.745 19.744H301.375c-10.905 0-19.746-8.84-19.746-19.744 0-10.906 8.841-19.746 19.746-19.746z"  horiz-adv-x="1024" />

    
    <glyph glyph-name="hot-topic" unicode="&#59092;" d="M155.648 184.32000000000005v-0.512c0-0.512 0-0.512-0.512-1.536-0.512-2.56-0.512-2.56-2.048-6.144-3.072-9.216-3.072-9.216-6.656-22.016-9.216-30.208-9.216-30.208-20.992-66.56-22.528-72.192-22.528-72.192-30.208-96.256-3.584-11.776 7.68-23.04 19.456-18.432 22.528 8.192 22.528 8.192 91.136 33.792 68.096 25.088 68.096 25.088 91.136 33.792l-13.312 1.536c68.096-45.056 148.48-69.632 232.448-69.632 232.448 0 420.864 188.416 420.864 420.864 0 232.448-188.416 420.864-420.864 420.864-232.448 0-420.864-188.416-420.864-420.864 0-79.36 22.016-155.136 62.464-221.184l-2.048 12.288z m28.672-9.216c1.536 4.096 0.512 8.704-1.536 12.288-37.888 61.44-58.368 131.584-58.368 205.312 0 216.064 175.104 391.168 391.168 391.168s391.168-175.104 391.168-391.168-175.104-391.168-391.168-391.168c-77.824 0-152.064 22.528-215.552 64.512-4.096 2.56-9.216 3.072-13.312 1.536-22.528-8.192-22.528-8.192-91.136-33.792-68.096-25.088-68.096-25.088-91.136-33.792l19.456-18.432c7.68 24.064 7.68 24.064 30.208 96.256 11.264 36.352 11.264 36.352 20.992 66.56 4.096 12.8 4.096 12.8 6.656 22.016 1.024 3.584 1.024 3.584 2.048 6.144 0.512 1.536 0.512 1.536 0.512 2.048v0.512zM739.328 504.832h-64.512l21.504 75.264c4.096 15.36-4.608 31.232-19.968 35.328-15.36 4.096-31.232-4.608-35.328-19.968l-25.6-91.136H480.256L501.76 580.096c4.096 15.36-4.608 31.232-19.968 35.328-15.36 4.096-31.232-4.608-35.328-19.968l-25.6-90.624H331.264c-14.848 0-26.624-11.776-26.624-26.624v-5.12c0-14.848 11.776-26.624 26.624-26.624H404.48l-32.768-115.2H294.4c-15.872 0-28.672-12.8-28.672-28.672 0-15.872 12.8-28.672 28.672-28.672h61.44l-19.456-68.608c-4.096-15.36 4.608-31.232 19.968-35.328 15.36-4.096 31.232 4.608 35.328 19.968l24.064 83.968h134.656l-19.456-68.608c-4.096-15.36 4.608-31.232 19.968-35.328 15.36-4.096 31.232 4.608 35.328 19.968l23.552 83.968h90.112c15.872 0 28.672 12.8 28.672 28.672 0 15.872-12.8 28.672-28.672 28.672h-73.728l32.768 115.2h80.896c14.848 0 26.624 11.776 26.624 26.624v5.12c-0.512 14.848-12.288 26.624-27.136 26.624z m-173.056-173.056H431.616l32.768 115.2H599.04l-32.768-115.2z"  horiz-adv-x="1024" />

    
    <glyph glyph-name="news" unicode="&#58925;" d="M526.432-28.063999999999965c-20.96 0-44.16 12.576-68.96 37.344L274.752 192H192c-52.928 0-96 43.072-96 96V480c0 52.928 43.072 96 96 96h82.752l182.624 182.624c24.576 24.576 47.744 37.024 68.864 37.024C549.184 795.648 576 780 576 736v-704c0-44.352-26.72-60.064-49.568-60.064zM192 512c-17.632 0-32-14.368-32-32v-192c0-17.664 14.368-32 32-32h96c8.48 0 16.64-3.36 22.624-9.376l192.064-192.096c3.392-3.36 6.496-6.208 9.312-8.576V721.984a145.824 145.824 0 0 1-9.376-8.608l-192-192C304.64 515.36 296.48 512 288 512h-96z m495.584-346.368a31.898 31.898 0 0 0-18.656 6.016c-14.336 10.304-17.632 30.304-7.328 44.672l12.672 17.344C707.392 278.55999999999995 736 317.376 736 384c0 69.024-25.344 102.528-57.44 144.928-5.664 7.456-11.328 15.008-16.928 22.784-10.304 14.336-7.04 34.336 7.328 44.672 14.368 10.368 34.336 7.04 44.672-7.328 5.248-7.328 10.656-14.464 15.968-21.504C764.224 521.7919999999999 800 474.496 800 384c0-87.648-39.392-141.12-74.144-188.32l-12.224-16.736c-6.272-8.704-16.064-13.312-26.048-13.312z m108.864-108.64a31.906 31.906 0 0 0-21.088 7.936c-13.28 11.648-14.624 31.872-2.976 45.152C836.608 183.32799999999997 896 267.13599999999997 896 384s-59.392 200.704-123.616 273.888c-11.648 13.312-10.304 33.504 2.976 45.184 13.216 11.648 33.44 10.336 45.152-2.944C889.472 621.44 960 522.4 960 384s-70.528-237.472-139.488-316.096c-6.368-7.232-15.2-10.912-24.064-10.912z"  horiz-adv-x="1024" />

    
    <glyph glyph-name="weixin-copy" unicode="&#58882;" d="M669.029 578.604c10.181 0 20.236-0.748 30.238-1.865-27.167 126.533-162.436 220.531-316.852 220.531-172.618 0-314.035-117.66-314.035-267.067 0-86.242 47.044-157.061 125.674-211.988l-31.407-94.468 109.755 55.053c39.303-7.781 70.81-15.765 110.011-15.765 9.85 0 19.625 0.482 29.323 1.243-6.144 20.996-9.698 42.983-9.698 65.792 0.002 137.197 117.807 248.533 266.991 248.533zM500.168 663.743c23.639 0 39.303-15.55 39.303-39.185 0-23.536-15.664-39.3-39.303-39.3-23.536 0-47.147 15.765-47.147 39.3 0.001 23.635 23.612 39.185 47.147 39.185zM280.403 585.257c-23.537 0-47.3 15.765-47.3 39.3 0 23.635 23.764 39.185 47.3 39.185 23.535 0 39.2-15.55 39.2-39.185-0-23.535-15.665-39.3-39.2-39.3zM955.618 333.853c0 125.543-125.622 227.882-266.734 227.882-149.413 0-267.091-102.339-267.091-227.882 0-125.77 117.678-227.879 267.091-227.879 31.279 0 62.838 7.897 94.243 15.765l86.12-47.17-23.613 78.473c63.041 47.286 109.983 109.993 109.983 180.811zM602.307 373.142c-15.639 0-31.431 15.549-31.431 31.417 0 15.651 15.792 31.405 31.431 31.405 23.74 0 39.303-15.755 39.303-31.405 0-15.867-15.563-31.417-39.303-31.417zM775.028 373.142c-15.539 0-31.202 15.549-31.202 31.417 0 15.651 15.664 31.405 31.202 31.405 23.536 0 39.301-15.755 39.301-31.405 0.001-15.867-15.765-31.417-39.301-31.417z"  horiz-adv-x="1024" />

    
    <glyph glyph-name="phone1" unicode="&#59089;" d="M704 256c-64-64-64-128-128-128s-128 64-192 128-128 128-128 192 64 64 128 128S256 832 192 832 0 640 0 640c0-128 131.488-387.488 256-512s384-256 512-256c0 0 192 128 192 192S768 320 704 256z"  horiz-adv-x="1024" />

    
    <glyph glyph-name="kongjian" unicode="&#58898;" d="M512-128C229.546667-128 0 101.546667 0 384S229.546667 896 512 896s512-229.546667 512-512-229.546667-512-512-512z m0 802.133333c-4.266667 0-9.386667-3.413333-11.946667-10.24l-80.213333-165.546666c-5.12-9.386667-7.68-11.093333-21.333333-12.8l-170.666667-18.773334c-15.36-1.706667-18.773333-11.946667-7.68-22.186666l133.973333-122.026667c5.973333-5.973333 6.826667-8.533333 4.266667-16.213333L324.266667 128c-1.706667-11.093333 1.706667-17.066667 8.533333-17.066667 3.413333 0 7.68 1.706667 10.24 3.413334l152.746667 87.04c11.093333 6.826667 20.48 6.826667 30.72 0l153.6-87.893334c13.653333-7.68 22.186667-1.706667 19.626666 13.653334l-25.6 143.36c15.36 5.12 30.72 11.946667 40.106667 18.773333l-3.413333-0.853333c-54.613333-12.8-128.853333-20.48-197.973334-20.48-25.6 0-50.346667 0.853333-74.24 2.56-21.333333 1.706667-40.96 3.413333-59.733333 5.973333-6.826667 0.853333 0.853333 5.973333 0.853333 5.973333L563.2 412.16s5.12 2.56 0 3.413333c-75.946667 11.946667-159.573333 14.506667-238.08 14.506667h-5.12c52.906667 11.946667 120.32 19.626667 192.853333 19.626667 42.666667 0 83.626667-2.56 121.173334-6.826667 0 0 21.333333-2.56 30.72-4.266667 7.68-0.853333 0.853333-5.973333 0.853333-5.973333L480.426667 305.493333s-4.266667-2.56 0-3.413333c56.32-7.68 126.293333-11.093333 189.44-11.946667l-2.56 15.36c-1.706667 8.533333 0 11.946667 6.826666 17.92L803.84 443.733333c11.093333 10.24 8.533333 20.48-7.68 22.186667l-175.786667 17.066667c-13.653333 0.853333-16.213333 3.413333-20.48 14.506666l-75.093333 165.546667c-3.413333 7.68-8.533333 11.093333-12.8 11.093333z"  horiz-adv-x="1024" />

    
    <glyph glyph-name="shoucang1" unicode="&#58885;" d="M752-43.2c-9.6 0-20.8 3.2-30.4 8l-208 104-209.6-104c-20.8-11.2-48-9.6-67.2 4.8s-30.4 40-25.6 64l43.2 224-164.8 153.6c-17.6 17.6-24 44.8-17.6 67.2 8 24 27.2 41.6 52.8 44.8l228.8 41.6 102.4 208c11.2 22.4 33.6 36.8 57.6 36.8s48-14.4 57.6-36.8l102.4-208 228.8-40c24-3.2 44.8-20.8 51.2-44.8 8-24 1.6-49.6-16-67.2l-164.8-155.2 41.6-224c4.8-25.6-6.4-49.6-25.6-64-9.6-8-22.4-12.8-36.8-12.8z"  horiz-adv-x="1024" />

    
    <glyph glyph-name="shoucang" unicode="&#59107;" d="M963.2 425.6c22.4 22.4 32 51.2 22.4 76.8-9.6 25.6-32 44.8-60.8 48l-217.6 32c-9.6 3.2-28.8 16-32 25.6l-96 204.8c-12.8 28.8-38.4 48-64 48s-51.2-16-64-48l-96-204.8c-3.2-9.6-22.4-22.4-32-25.6l-217.6-32c-32-3.2-54.4-22.4-60.8-48-9.6-25.6 0-54.4 22.4-76.8l156.8-160c6.4-6.4 12.8-28.8 12.8-41.6L192 0c-6.4-32 3.2-60.8 25.6-76.8 12.8-9.6 25.6-12.8 38.4-12.8 12.8 0 25.6 3.2 41.6 9.6l195.2 105.6c9.6 6.4 32 6.4 38.4 0l195.2-105.6c28.8-16 57.6-16 76.8 3.2 22.4 16 32 44.8 25.6 76.8l-38.4 227.2c-3.2 9.6 6.4 32 12.8 41.6l160 156.8"  horiz-adv-x="1024" />

    


  </font>
</defs>
</svg>
